<svg xmlns="http://www.w3.org/2000/svg" xmlns:xlink="http://www.w3.org/1999/xlink" id="Layer_1" x="0px" y="0px" viewBox="0 0 569.79 179.84" style="enable-background:new 0 0 569.79 179.84;" xml:space="preserve">
<style type="text/css">
	.st0{fill:#FFFFFF;}
</style>
<g>
	<g>
		<path class="st0" d="M348.33,51.39c-0.73,0.32-1.37,0.82-1.9,1.46l-2.56-1.01l0.23-0.62c0.17-0.46-0.07-0.97-0.53-1.14    c-0.45-0.16-0.97,0.07-1.14,0.53l-0.21,0.58l-2.78-1.1l0.18-0.5c0.17-0.46-0.07-0.97-0.53-1.14s-0.97,0.07-1.13,0.53l-0.17,0.46    l-2.78-1.1l0.19-0.52c0.17-0.46-0.07-0.97-0.53-1.13c-0.46-0.17-0.97,0.07-1.14,0.53l-0.17,0.48l-2.78-1.1l0.2-0.54    c0.17-0.46-0.07-0.97-0.53-1.14s-0.97,0.07-1.14,0.53l-0.18,0.5l-3.66-1.45l-3.63,9.97l3.73,1.24l-0.18,0.5    c-0.17,0.46,0.07,0.97,0.53,1.14c0.44,0.17,0.97-0.08,1.14-0.53l0.2-0.54l2.83,0.94l-0.17,0.47c-0.08,0.22-0.07,0.47,0.03,0.68    s0.28,0.38,0.5,0.46c0.45,0.17,0.97-0.08,1.13-0.53l0.19-0.52l2.83,0.94l-0.16,0.46c-0.17,0.46,0.07,0.97,0.53,1.13    c0.1,0.03,0.2,0.05,0.3,0.05c0.37,0,0.71-0.23,0.83-0.58l0.18-0.5l2.83,0.94l-0.21,0.58c-0.08,0.22-0.07,0.47,0.03,0.68    s0.28,0.38,0.5,0.46c0.45,0.16,0.98-0.08,1.13-0.53l0.23-0.62l2.61,0.87c-0.01,0.85,0.17,1.64,0.51,2.35    c1.1,2.25,3.5,3.04,3.6,3.07l0.81,0.26l5.63-15.47l0.06-0.17l-0.8-0.33C352.8,51.25,350.54,50.4,348.33,51.39z M325.99,54.03    l-2.05-0.68l2.38-6.54l2.01,0.79L325.99,54.03z M330.5,55.53l-2.83-0.95l2.3-6.33l2.78,1.1L330.5,55.53z M335.02,57.04l-2.83-0.94    l2.21-6.09l2.78,1.1L335.02,57.04z M339.54,58.54l-2.84-0.94l2.13-5.84l2.78,1.1L339.54,58.54z M343.68,59.26    c-0.07,0.19-0.13,0.39-0.19,0.6l-2.27-0.76l2.04-5.6l2.22,0.88c-0.1,0.2-0.17,0.39-0.24,0.58L343.68,59.26z M347.11,65    c-0.02-0.01-0.05-0.02-0.07-0.04c-0.07-0.04-0.14-0.08-0.21-0.13l-0.1,0.16l0.04-0.2c-0.06-0.04-0.12-0.08-0.21-0.15l-0.04-0.03    c-0.07-0.05-0.14-0.11-0.21-0.17l-0.12,0.15l0.08-0.18c-0.08-0.07-0.16-0.15-0.27-0.26l-0.03-0.04c-0.06-0.06-0.11-0.12-0.17-0.18    l-0.08-0.1c-0.05-0.07-0.1-0.13-0.14-0.2l-0.06-0.09c-0.07-0.1-0.13-0.21-0.18-0.32c-0.46-0.93-0.45-2.06,0.02-3.34l1.56-4.29    l0.01-0.03c0.47-1.26,1.18-2.12,2.12-2.53c0.71-0.32,1.59-0.4,2.52-0.23L347.11,65z"></path>
		<path class="st0" d="M267.86,60.33c-0.1,0.04-2.46,0.92-4.34,0.08c-0.92-0.41-1.6-1.2-2.01-2.34l-1.49-4.09    c3.56-1.14,15.28-4.94,29.12-9.76c13.83,4.82,25.56,8.62,29.12,9.76l-1.49,4.09c-0.42,1.14-1.09,1.93-2.01,2.34    c-1.92,0.87-4.32-0.07-4.34-0.08c-0.46-0.17-0.97,0.05-1.15,0.49c-0.09,0.22-0.09,0.47,0,0.68c0.1,0.21,0.27,0.38,0.49,0.47    c0.06,0.02,1.44,0.57,3.13,0.57c0.95,0,1.82-0.17,2.59-0.51c1.37-0.62,2.37-1.75,2.96-3.36l5.23-14.38h0.06v-0.16l1.8-4.95    c0.42-1.14,1.09-1.93,2.01-2.34c1.87-0.84,4.25,0.04,4.35,0.08c0.22,0.09,0.46,0.09,0.68-0.01c0.21-0.09,0.38-0.26,0.47-0.49    c0.18-0.45-0.04-0.97-0.49-1.15c-0.13-0.05-3.13-1.22-5.72-0.05c-1.37,0.62-2.37,1.75-2.95,3.35l-1.49,4.09    c-2.08-0.85-7.2-2.93-13.99-5.6c20.47-8.61,41.49-21.08,41.7-21.2c0.37-0.21,0.52-0.67,0.38-1.07l-0.1-0.27    c-0.01-0.02-0.02-0.05-0.05-0.08c-0.02-0.05-0.04-0.09-0.07-0.13c-0.04-0.06-0.08-0.1-0.14-0.15c-0.03-0.03-0.06-0.05-0.09-0.07    c-0.04-0.03-0.09-0.05-0.15-0.07l-0.07,0.18l0.02-0.19c-0.02-0.01-0.06-0.03-0.1-0.03c-0.06-0.02-0.13-0.02-0.19-0.02    c-0.05,0-0.1,0-0.14,0.01c-0.32,0.06-32.17,5.34-54.47,13.56c-1.94,0.72-3.87,1.44-5.78,2.15c-1.9-0.71-3.83-1.43-5.78-2.15    c-22.31-8.21-54.15-13.5-54.47-13.56c-0.11-0.01-0.21-0.01-0.32,0.01c-0.05,0.01-0.09,0.02-0.17,0.06    c-0.03,0.02-0.08,0.03-0.12,0.06c-0.05,0.03-0.09,0.07-0.13,0.11c-0.04,0.03-0.08,0.07-0.11,0.12c-0.03,0.04-0.06,0.09-0.08,0.14    l-0.14,0.35c-0.15,0.4,0.01,0.85,0.38,1.07c0.21,0.13,21.34,12.64,41.7,21.21c-7.09,2.79-12.29,4.9-13.99,5.6l-1.49-4.09    c-0.58-1.61-1.58-2.73-2.95-3.35c-2.61-1.16-5.6,0-5.73,0.05c-0.45,0.18-0.67,0.7-0.49,1.15c0.09,0.22,0.25,0.4,0.47,0.49    c0.22,0.1,0.46,0.1,0.68,0.01c0.02-0.01,2.44-0.94,4.34-0.08c0.92,0.41,1.59,1.2,2.01,2.34l7.09,19.48    c0.59,1.61,1.58,2.74,2.96,3.36c0.77,0.34,1.64,0.51,2.59,0.51c1.69,0,3.07-0.54,3.13-0.57c0.22-0.09,0.39-0.26,0.48-0.47    c0.09-0.22,0.09-0.46,0.01-0.68C268.83,60.37,268.31,60.15,267.86,60.33z M321.77,44.34l-1.36,3.73l-20.78-7.56l0.01-0.01    c2.02-0.73,4.17-1.55,6.38-2.45C313.93,41.16,319.88,43.57,321.77,44.34z M234.31,16.74c4.01,0.75,9.5,1.83,15.74,3.24    c1.74,0.39,3.48,0.79,5.19,1.2l0.15,0.03c1.15,0.27,2.31,0.55,3.48,0.85l0.13,0.03c0.57,0.14,1.13,0.28,1.71,0.43l0.2,0.05    c1.15,0.29,2.3,0.6,3.46,0.9l0.24,0.07c0.56,0.15,1.12,0.3,1.68,0.46l0.24,0.06c0.49,0.14,0.98,0.27,1.46,0.41l0.28,0.08    c0.56,0.16,1.12,0.32,1.68,0.48l0.31,0.09c0.55,0.16,1.1,0.32,1.65,0.48c0.08,0.02,0.15,0.04,0.23,0.07    c0.51,0.16,1.02,0.31,1.53,0.46l0.23,0.07c0.54,0.16,1.07,0.33,1.6,0.5l0.34,0.11c0.53,0.17,1.07,0.34,1.63,0.53l0.12,0.04    c0.5,0.17,0.99,0.33,1.48,0.5l0.29,0.1c0.51,0.18,1.02,0.35,1.53,0.53l0.31,0.12c0.52,0.18,1.04,0.37,1.55,0.56    c1.3,0.48,2.59,0.95,3.86,1.44c-2.37,0.89-4.68,1.77-6.91,2.64L234.31,16.74z M257.87,48.07l-1.36-3.73    c3.71-1.51,20.9-8.48,39.01-15.15c0.51-0.19,1.03-0.38,1.56-0.56l0.3-0.11c0.51-0.18,1.02-0.36,1.53-0.53l0.26-0.09    c0.51-0.17,1.02-0.34,1.52-0.51l0.13-0.04c0.54-0.17,1.08-0.35,1.62-0.52l0.31-0.1c0.54-0.17,1.08-0.34,1.63-0.51l0.17-0.06    c0.53-0.16,1.06-0.32,1.59-0.48l0.18-0.06c0.55-0.17,1.12-0.33,1.67-0.49l0.28-0.08c0.57-0.17,1.13-0.33,1.7-0.49l0.06-0.01    c0.56-0.16,1.12-0.32,1.69-0.48l0.23-0.06c0.56-0.15,1.13-0.31,1.69-0.46l0.24-0.07c1.16-0.31,2.31-0.61,3.46-0.9l0.21-0.06    c0.57-0.14,1.13-0.29,1.7-0.43l0.17-0.04c0.58-0.15,1.15-0.28,1.72-0.43c0.57-0.14,1.15-0.28,1.71-0.41    c0.06-0.01,0.13-0.03,0.2-0.05c0.56-0.14,1.12-0.26,1.71-0.4c0.57-0.14,1.14-0.26,1.74-0.4l1.65-0.37l0.14-0.03    c1.1-0.25,2.18-0.48,3.28-0.72c0.53-0.12,1.05-0.22,1.61-0.34c1.03-0.22,2.03-0.43,3.04-0.64c3.01-0.62,5.66-1.13,7.73-1.52    L257.87,48.07z"></path>
		<path class="st0" d="M253,44.49l-3.66,1.45l-0.19-0.5c-0.08-0.22-0.24-0.4-0.46-0.5c-0.21-0.1-0.46-0.11-0.68-0.03    c-0.46,0.17-0.7,0.68-0.53,1.14l0.2,0.54l-2.78,1.1l-0.17-0.48c-0.17-0.46-0.68-0.7-1.14-0.53c-0.22,0.08-0.4,0.24-0.5,0.46    c-0.1,0.21-0.11,0.46-0.03,0.68l0.19,0.52l-2.78,1.1l-0.16-0.45c-0.17-0.46-0.69-0.7-1.14-0.53c-0.46,0.17-0.7,0.68-0.53,1.14    l0.18,0.5l-2.78,1.1l-0.21-0.58c-0.16-0.46-0.68-0.7-1.13-0.53c-0.22,0.08-0.4,0.24-0.5,0.46c-0.1,0.21-0.11,0.46-0.03,0.68    l0.23,0.62l-2.56,1.01c-0.53-0.65-1.17-1.14-1.9-1.46c-2.27-1.01-4.63-0.07-4.73-0.04l-0.79,0.33l5.63,15.47l0.06,0.17l0.82-0.26    c0.1-0.03,2.5-0.82,3.6-3.07c0.35-0.71,0.52-1.5,0.51-2.35l2.61-0.87l0.23,0.62c0.16,0.45,0.68,0.7,1.14,0.53    c0.22-0.08,0.4-0.24,0.5-0.46c0.1-0.21,0.11-0.46,0.03-0.68l-0.21-0.58l2.83-0.94l0.18,0.5c0.13,0.35,0.46,0.58,0.83,0.58    c0.11,0,0.21-0.02,0.3-0.05c0.46-0.17,0.7-0.68,0.53-1.13l-0.17-0.46l2.83-0.94l0.19,0.52c0.16,0.45,0.68,0.7,1.14,0.53    c0.22-0.08,0.4-0.24,0.5-0.46c0.1-0.21,0.11-0.46,0.03-0.68l-0.17-0.47l2.84-0.94l0.2,0.54c0.16,0.45,0.69,0.69,1.13,0.53    c0.46-0.17,0.7-0.68,0.53-1.14l-0.18-0.5l3.73-1.24L253,44.49z M232.95,63.2L232.95,63.2c-0.05,0.12-0.12,0.22-0.18,0.32    l-0.07,0.1c-0.04,0.07-0.1,0.14-0.15,0.2c-0.02,0.03-0.04,0.06-0.07,0.09c-0.06,0.07-0.12,0.14-0.17,0.19l-0.06,0.07    c-0.08,0.08-0.16,0.16-0.24,0.23l0.13,0.14l-0.17-0.1c-0.07,0.06-0.14,0.11-0.21,0.17l-0.08,0.06c-0.06,0.04-0.11,0.08-0.17,0.12    l-0.08,0.06c-0.07,0.04-0.13,0.08-0.19,0.12L231.2,65c-0.02,0-0.02,0.01-0.04,0.02l-4.45-12.23c0.69-0.12,1.63-0.16,2.51,0.24    c0.95,0.42,1.67,1.28,2.13,2.57l1.56,4.29C233.39,61.14,233.4,62.27,232.95,63.2z M234.78,59.86c-0.06-0.21-0.12-0.41-0.19-0.6    l-1.56-4.29c-0.07-0.18-0.15-0.37-0.24-0.58l2.22-0.88l2.04,5.6L234.78,59.86z M238.73,58.54l-2.07-5.68l2.78-1.1l2.13,5.84    L238.73,58.54z M243.25,57.04l-2.16-5.93l2.78-1.1l2.22,6.09L243.25,57.04z M247.77,55.53l-2.25-6.18l2.78-1.1l2.31,6.33    L247.77,55.53z M252.29,54.03l-2.34-6.42l2.01-0.79l2.38,6.54L252.29,54.03z"></path>
		<path class="st0" d="M278.01,18.79c0.1,0.4,0.46,0.67,0.87,0.67h20.52c0.41,0,0.76-0.28,0.86-0.68l5.53-13.11    c0.19-0.34,0.15-0.76-0.12-1.05c-0.27-0.28-0.68-0.37-1.04-0.2l-7.54,3.51c-0.31,0.15-0.5,0.44-0.51,0.78    c-0.08,2.37-1.38,3.48-2.63,3.55c-0.03,0-0.06,0-0.09,0c-0.73,0-1.59-0.37-1.73-1.44c-0.35-2.65,1.5-4,1.71-4.14    c0.22-0.15,0.37-0.38,0.4-0.64s-0.05-0.52-0.24-0.71l-4.21-4.48l-0.04-0.04c-0.04-0.03-0.08-0.06-0.11-0.07l-0.05-0.03    c-0.03-0.02-0.07-0.05-0.12-0.08c-0.05-0.02-0.1-0.03-0.13-0.03l-0.03,0.18l-0.04-0.2c-0.03-0.01-0.08-0.01-0.13-0.01    c-0.05,0-0.1,0.01-0.14,0.01l0.04,0.19l-0.11-0.17c-0.03,0.01-0.08,0.01-0.13,0.03c-0.05,0.02-0.1,0.05-0.13,0.08l-0.05,0.03    c-0.03,0.01-0.06,0.03-0.08,0.05l-4.27,4.53c-0.18,0.19-0.27,0.45-0.23,0.71c0.03,0.26,0.17,0.5,0.39,0.64    c0.09,0.06,2.07,1.42,1.71,4.14c-0.13,1.01-0.95,1.44-1.73,1.44c-0.03,0-0.06,0-0.09,0c-1.25-0.06-2.55-1.18-2.63-3.55    c-0.01-0.34-0.21-0.64-0.52-0.78l-7.54-3.51c-0.36-0.16-0.77-0.08-1.03,0.2c-0.26,0.29-0.31,0.71-0.12,1.05L278.01,18.79z     M279.95,9.33c0.32,3.11,2.43,4.62,4.29,4.71c0.06,0,0.12,0,0.18,0c1.84,0,3.26-1.21,3.5-2.99c0.34-2.6-0.86-4.32-1.71-5.18    l2.92-3.11l2.92,3.11c-0.84,0.86-2.04,2.59-1.7,5.18c0.24,1.84,1.78,3.07,3.68,2.99c1.85-0.09,3.97-1.6,4.29-4.71l4.53-2.11    l-3.64,8.43h-20.16l-3.64-8.43L279.95,9.33z"></path>
		<path class="st0" d="M278.36,21.18c-0.49,0-0.89,0.4-0.89,0.89s0.4,0.89,0.89,0.89h21.55c0.49,0,0.89-0.4,0.89-0.89    s-0.4-0.89-0.89-0.89H278.36z"></path>
		<path class="st0" d="M128.54,43.92c4.38,0,7.67-3.29,7.67-7.65s-3.3-7.65-7.67-7.65c-4.38,0-7.69,3.29-7.69,7.65    S124.16,43.92,128.54,43.92z M128.54,30.98c2.91,0,5.03,2.22,5.03,5.28s-2.12,5.28-5.03,5.28c-2.92,0-5.05-2.22-5.05-5.28    C123.49,33.21,125.62,30.98,128.54,30.98z"></path>
		<path class="st0" d="M150.6,34.43c0-3.51-2.41-5.61-6.44-5.61h-3.81v14.91h2.6v-3.75h1.21c0.37,0,0.72-0.03,1.14-0.08l2.56,3.76    l0.05,0.07h3.01l-3.15-4.6C149.65,38.23,150.6,36.65,150.6,34.43z M144.07,37.69h-1.12v-6.56h1.12c2.62,0,3.89,1.08,3.89,3.29    C147.96,36.65,146.72,37.69,144.07,37.69z"></path>
		<rect x="155.01" y="28.81" class="st0" width="2.58" height="14.91"></rect>
		<path class="st0" d="M169.57,36.08v2.3h4.4c-0.36,1.51-1.74,3.19-4.58,3.19c-2.92,0-5.05-2.23-5.05-5.31    c0-3.05,2.11-5.26,5.03-5.26c1.77,0,3.12,0.72,4.02,2.13l0.1,0.15l2.02-1.46l-0.08-0.13c-1.29-2.03-3.33-3.06-6.06-3.06    c-4.37,0-7.67,3.28-7.67,7.63c0,4.36,3.31,7.65,7.71,7.65c2.22,0,4.08-0.69,5.36-2c1.33-1.36,2.02-3.32,1.97-5.67v-0.16    C176.74,36.08,169.57,36.08,169.57,36.08z"></path>
		<rect x="180.68" y="28.81" class="st0" width="2.58" height="14.91"></rect>
		<path class="st0" d="M190.55,35.52c0-0.52-0.05-1.13-0.09-1.56c0.29,0.35,0.7,0.84,1.03,1.2l8.04,8.66l0.05,0.05h0.52V28.81h-2.43    v8.18c0,0.48,0.05,1.1,0.09,1.55c-0.28-0.36-0.68-0.84-1.01-1.19l-8.04-8.64l-0.05-0.05h-0.54v15.06h2.43L190.55,35.52    L190.55,35.52z"></path>
		<polygon class="st0" points="214.78,41.4 207.49,41.4 207.49,38.75 213.69,38.75 213.69,36.47 207.49,36.47 207.49,31.14     214.48,31.14 214.48,28.81 204.89,28.81 204.89,43.72 214.78,43.72   "></polygon>
		<polygon class="st0" points="361.5,43.72 364.1,43.72 364.1,39 370.28,39 370.28,36.66 364.1,36.66 364.1,31.14 370.9,31.14     370.9,28.81 361.5,28.81   "></polygon>
		<path class="st0" d="M377.61,39.97h1.21c0.37,0,0.73-0.03,1.14-0.08l2.56,3.76l0.05,0.07h3.01l-3.16-4.6    c1.88-0.89,2.84-2.47,2.84-4.7c0-3.52-2.41-5.62-6.45-5.62H375v14.91h2.61L377.61,39.97L377.61,39.97z M377.61,31.14h1.12    c2.62,0,3.89,1.08,3.89,3.29c0,2.23-1.24,3.27-3.89,3.27h-1.12V31.14z"></path>
		<path class="st0" d="M391.65,41.67h6.45l0.84,2.06h2.72l-6.49-14.96l-0.05-0.1h-0.47l-6.28,14.83l-0.1,0.23h2.55L391.65,41.67z     M394.28,35.11c0.22-0.51,0.43-1.17,0.56-1.63c0.14,0.46,0.35,1.12,0.57,1.63l1.73,4.32h-4.59L394.28,35.11z"></path>
		<path class="st0" d="M407.65,35.52c0-0.52-0.05-1.13-0.09-1.56c0.28,0.35,0.69,0.84,1.03,1.2l8.04,8.66l0.05,0.05h0.52V28.81    h-2.43v8.18c0,0.48,0.05,1.11,0.09,1.55c-0.28-0.35-0.68-0.84-1.01-1.19l-8.04-8.64l-0.05-0.05h-0.54v15.06h2.43L407.65,35.52    L407.65,35.52z"></path>
		<path class="st0" d="M428.98,43.92c2.68,0,4.82-1.1,6.19-3.19l0.09-0.13l-2-1.41l-0.1,0.14c-1.01,1.49-2.38,2.22-4.17,2.22    c-2.9,0-5.01-2.22-5.01-5.28c0-3.05,2.11-5.26,5.01-5.26c1.73,0,3.1,0.7,3.96,2.02l0.09,0.15l2.01-1.44l-0.09-0.14    c-1.31-1.97-3.32-2.97-5.97-2.97c-4.36,0-7.65,3.28-7.65,7.63C421.33,40.63,424.62,43.92,428.98,43.92z"></path>
		<polygon class="st0" points="448.94,41.4 441.64,41.4 441.64,38.75 447.84,38.75 447.84,36.47 441.64,36.47 441.64,31.14     448.63,31.14 448.63,28.81 439.04,28.81 439.04,43.72 448.94,43.72   "></polygon>
		<path class="st0" d="M241.82,156.2h-34.95V98.87l4.66-3.14l-0.63-2.39h-31.43l-0.75,2.39l4.65,3.14v75.44l-4.65,3.14l0.75,2.39    h65.38l1.38-1.13l5.15-26.15l-2.01-1.38L241.82,156.2z M237.47,169.47h-43.73v-65.75h2.75v62.87h41.54L237.47,169.47z"></path>
		<path class="st0" d="M340.75,156.2H305.8V98.87l4.65-3.14l-0.63-2.39h-31.43l-0.75,2.39l4.65,3.14v75.44l-4.65,3.14l0.75,2.39    h65.38l1.38-1.13l5.15-26.15l-2.01-1.38L340.75,156.2z M336.39,169.47h-43.73v-65.75h2.75v62.87h41.55L336.39,169.47z"></path>
		<path class="st0" d="M58.33,93.34l-0.76,2.39l3.4,2.26l-15.72,36.08L29.53,97.99l3.39-2.26l-0.75-2.39H0.75L0,95.73l6.79,4.65    l37.34,79.46h2.26l37.35-79.46l6.79-4.65l-0.76-2.39H58.33z M45.25,163.06l-26.74-60.17h2.74l0.06,0.13l23.94,53.86l24-53.98h2.74    L45.25,163.06z"></path>
		<path class="st0" d="M144.58,95.73l-0.76-2.39h-31.43l-0.76,2.39l4.65,3.14v75.44l-4.65,3.14l0.76,2.39h31.43l0.76-2.39    l-4.65-3.14V98.87L144.58,95.73z M129.55,169.47h-2.88v-65.75h2.88V169.47z"></path>
		<path class="st0" d="M565.14,98.87l4.65-3.14l-0.75-2.39h-31.43l-0.63,2.39l4.65,3.14v38.6l-29.05-43.51l-0.44-0.63h-0.69H485.3    l-0.76,2.39l4.65,3.14v75.44l-4.65,3.14l0.76,2.39h31.43l0.63-2.39l-4.65-3.14v-38.6l29.04,43.51l0.88,0.37l0.25,0.26h26.16    l0.75-2.39l-4.65-3.14V98.87z M554.76,169.47h-6.9l-0.06-0.09l-42.42-62.56h-3.04v62.66h-2.75v-65.75h7.04l42.61,62.75h2.78    v-62.75h2.75v65.74H554.76z"></path>
		<path class="st0" d="M415.55,93.34c-23.89,0-43.25,19.36-43.25,43.25s19.36,43.25,43.25,43.25s43.25-19.36,43.25-43.25    C458.81,112.7,439.44,93.34,415.55,93.34z M415.55,169.44c-18.14,0-32.84-14.71-32.84-32.85c0-18.14,14.7-32.85,32.84-32.85    c18.14,0,32.85,14.71,32.85,32.85S433.7,169.44,415.55,169.44z"></path>
		<path class="st0" d="M415.55,106.48c-16.63,0-30.1,13.48-30.1,30.11s13.48,30.11,30.1,30.11c16.63,0,30.11-13.48,30.11-30.11    S432.18,106.48,415.55,106.48z M415.55,156c-10.72,0-19.41-8.69-19.41-19.41s8.69-19.41,19.41-19.41s19.41,8.69,19.41,19.41    S426.28,156,415.55,156z"></path>
	</g>
</g>
</svg>